<svg xmlns="http://www.w3.org/2000/svg" xmlns:xlink="http://www.w3.org/1999/xlink" width="840" height="581.04"><rect width="840" height="581.04" rx="5" ry="5" class="a"/><svg y="0%" x="0%"><circle cx="20" cy="20" r="6" fill="#ff5f58"/><circle cx="40" cy="20" r="6" fill="#ffbd2e"/><circle cx="60" cy="20" r="6" fill="#18c132"/></svg><svg height="521.04" viewBox="0 0 80 52.104" width="800" x="15" xmlns="http://www.w3.org/2000/svg" xmlns:xlink="http://www.w3.org/1999/xlink" y="50"><style>@keyframes i{0%{transform:translateX(0)}.03%{transform:translateX(-80px)}.04%{transform:translateX(-240px)}6.59%{transform:translateX(-320px)}8.89%{transform:translateX(-400px)}15.45%{transform:translateX(-480px)}19.04%{transform:translateX(-560px)}19.05%{transform:translateX(-640px)}19.06%{transform:translateX(-800px)}25.61%{transform:translateX(-880px)}32.17%{transform:translateX(-960px)}38.73%{transform:translateX(-1040px)}45.29%{transform:translateX(-1120px)}51.85%{transform:translateX(-1200px)}58.41%{transform:translateX(-1280px)}64.39%{transform:translateX(-1360px)}70.95%{transform:translateX(-1440px)}74.51%{transform:translateX(-1520px)}74.52%{transform:translateX(-1600px)}74.53%{transform:translateX(-1760px)}81.08%{transform:translateX(-1840px)}87.64%{transform:translateX(-1920px)}89.92%{transform:translateX(-2000px)}89.94%{transform:translateX(-2080px)}93.4%{transform:translateX(-2160px)}93.43%{transform:translateX(-2240px)}93.44%{transform:translateX(-2560px)}}.a{fill:#282d35}.f{fill:#b9c0cb;white-space:pre}</style><g font-family="Monaco,Consolas,Menlo,'Bitstream Vera Sans Mono','Powerline Symbols',monospace" font-size="1.67"><defs><symbol id="1"><text y="1.67" class="f">══════════════════════════════════════════════════════════</text></symbol><symbol id="2"><text x="2.004" y="1.67" class="f">Bolo</text><text x="7.014" y="1.67" class="f">—</text><text x="9.018" y="1.67" class="f">your</text><text x="14.028" y="1.67" class="f">terminal</text><text x="23.046" y="1.67" class="f">talker</text></symbol><symbol id="3"><text x="2.004" y="1.67" class="f">Local</text><text x="8.016" y="1.67" class="f">TTS</text><text x="12.024" y="1.67" class="f">for</text><text x="16.032" y="1.67" class="f">the</text><text x="20.04" y="1.67" class="f">terminal</text><text x="29.058" y="1.67" class="f">with</text><text x="34.068" y="1.67" class="f">a</text><text x="36.072" y="1.67" class="f">live</text><text x="41.082" y="1.67" class="f">subtitle</text><text x="50.1" y="1.67" class="f">HUD</text></symbol><symbol id="4"><text y="1.67" class="f">$</text><text x="2.004" y="1.67" class="f">bolo</text><text x="7.014" y="1.67" class="f">&quot;Hello.</text><text x="15.03" y="1.67" class="f">I</text><text x="17.034" y="1.67" class="f">am</text><text x="20.04" y="1.67" class="f">Bolo,</text><text x="26.052" y="1.67" class="f">your</text><text x="31.062" y="1.67" class="f">terminal</text><text x="40.08" y="1.67" class="f">talker.&quot;</text></symbol><symbol id="5"><text y="1.67" class="f">$</text><text x="2.004" y="1.67" class="f">bolo</text><text x="7.014" y="1.67" class="f">&quot;Multi-paragraph</text><text x="24.048" y="1.67" class="f">mode</text><text x="29.058" y="1.67" class="f">—</text><text x="31.062" y="1.67" class="f">pipelined</text><text x="41.082" y="1.67" class="f">synthesis,</text><text x="52.104" y="1.67" class="f">no</text><text x="55.11" y="1.67" class="f">gaps.&quot;</text></symbol><symbol id="6"><text y="1.67" class="f">$</text><text x="2.004" y="1.67" class="f">bolo</text><text x="7.014" y="1.67" class="f">&quot;Long</text><text x="13.026" y="1.67" class="f">sentence</text><text x="22.044" y="1.67" class="f">to</text><text x="25.05" y="1.67" class="f">interrupt...&quot;</text><text x="39.078" y="1.67" class="f">&amp;</text></symbol><symbol id="7"><text y="1.67" class="f">$</text><text x="2.004" y="1.67" class="f">bolo</text><text x="7.014" y="1.67" class="f">--hush</text><text x="18.036" y="1.67" class="f">#</text><text x="20.04" y="1.67" class="f">in</text><text x="23.046" y="1.67" class="f">another</text><text x="31.062" y="1.67" class="f">terminal</text></symbol><symbol id="8"><text y="1.67" class="f">▶</text><text x="2.004" y="1.67" class="f">[1/1]</text><text x="8.016" y="1.67" class="f">show</text><text x="13.026" y="1.67" class="f">the</text><text x="17.034" y="1.67" class="f">hush</text><text x="22.044" y="1.67" class="f">flag</text><text x="27.054" y="1.67" class="f">in</text><text x="30.06" y="1.67" class="f">action</text><text x="37.074" y="1.67" class="f">across</text><text x="44.088" y="1.67" class="f">terminals,</text><text x="55.11" y="1.67" class="f">killing</text><text x="63.126" y="1.67" class="f">audio</text><text x="69.138" y="1.67" class="f">instantly✓</text></symbol><symbol id="9"><text y="1.67" class="f">hushed</text><text x="7.014" y="1.67" class="f">—</text><text x="9.018" y="1.67" class="f">audio</text><text x="15.03" y="1.67" class="f">stopped,</text><text x="24.048" y="1.67" class="f">running</text><text x="32.064" y="1.67" class="f">Bolo</text><text x="37.074" y="1.67" class="f">signalled</text><text x="47.094" y="1.67" class="f">to</text><text x="50.1" y="1.67" class="f">exit</text></symbol><symbol id="10"><text x="2.004" y="1.67" class="f">github.com/sumanthmukkala/bolo</text></symbol><symbol id="a"><path fill="transparent" d="M0 0h80v25H0z"/></symbol><symbol id="b"><path fill="#6f7683" d="M0 0h1.102v2.171H0z"/></symbol></defs><path class="a" d="M0 0h80v52.104H0z"/><g style="animation-duration:30.494s;animation-iteration-count:infinite;animation-name:i;animation-timing-function:steps(1,end)"><svg width="2640"><svg><use xlink:href="#a"/><use xlink:href="#b" x="-.004"/></svg><svg x="80"><use xlink:href="#a"/><use xlink:href="#b" x="-.004"/></svg><svg x="160"><use xlink:href="#a"/><use xlink:href="#b" x="-.004" y="8.659"/><use xlink:href="#1"/><use xlink:href="#2" y="2.171"/><use xlink:href="#3" y="4.342"/><use xlink:href="#1" y="6.513"/></svg><svg x="240"><use xlink:href="#a"/><use xlink:href="#b" x="-.004" y="13.001"/><use xlink:href="#1"/><use xlink:href="#2" y="2.171"/><use xlink:href="#3" y="4.342"/><use xlink:href="#1" y="6.513"/><use xlink:href="#4" y="10.855"/></svg><svg x="320"><use xlink:href="#a"/><use xlink:href="#b" x="13.996" y="13.001"/><use xlink:href="#1"/><use xlink:href="#2" y="2.171"/><use xlink:href="#3" y="4.342"/><use xlink:href="#1" y="6.513"/><use xlink:href="#4" y="10.855"/><text y="14.696" class="f">▶</text><text x="2.004" y="14.696" class="f">[1/2]</text><text x="8.016" y="14.696" class="f">Hello.</text></svg><svg x="400"><use xlink:href="#a"/><use xlink:href="#b" x="39.996" y="13.001"/><use xlink:href="#1"/><use xlink:href="#2" y="2.171"/><use xlink:href="#3" y="4.342"/><use xlink:href="#1" y="6.513"/><use xlink:href="#4" y="10.855"/><text y="14.696" class="f">▶</text><text x="2.004" y="14.696" class="f">[2/2]</text><text x="8.016" y="14.696" class="f">I</text><text x="10.02" y="14.696" class="f">am</text><text x="13.026" y="14.696" class="f">Bolo,</text><text x="19.038" y="14.696" class="f">your</text><text x="24.048" y="14.696" class="f">terminal</text><text x="33.066" y="14.696" class="f">talker.</text></svg><svg x="480"><use xlink:href="#a"/><use xlink:href="#b" x="-.004" y="13.001"/><use xlink:href="#1"/><use xlink:href="#2" y="2.171"/><use xlink:href="#3" y="4.342"/><use xlink:href="#1" y="6.513"/><use xlink:href="#4" y="10.855"/></svg><svg x="560"><use xlink:href="#a"/><use xlink:href="#b" x="-.004"/></svg><svg x="640"><use xlink:href="#a"/><use xlink:href="#b" x="-.004" y="8.659"/><use xlink:href="#1"/><use xlink:href="#2" y="2.171"/><use xlink:href="#3" y="4.342"/><use xlink:href="#1" y="6.513"/></svg><svg x="720"><use xlink:href="#a"/><use xlink:href="#b" x="-.004" y="10.83"/><use xlink:href="#1"/><use xlink:href="#2" y="2.171"/><use xlink:href="#3" y="4.342"/><use xlink:href="#1" y="6.513"/></svg><svg x="800"><use xlink:href="#a"/><use xlink:href="#b" x="-.004" y="13.001"/><use xlink:href="#1"/><use xlink:href="#2" y="2.171"/><use xlink:href="#3" y="4.342"/><use xlink:href="#1" y="6.513"/><use xlink:href="#5" y="10.855"/></svg><svg x="880"><use xlink:href="#a"/><use xlink:href="#b" x="44.996" y="13.001"/><use xlink:href="#1"/><use xlink:href="#2" y="2.171"/><use xlink:href="#3" y="4.342"/><use xlink:href="#1" y="6.513"/><use xlink:href="#5" y="10.855"/><text y="14.696" class="f">▶</text><text x="2.004" y="14.696" class="f">[1/5]</text><text x="8.016" y="14.696" class="f">Bolo</text><text x="13.026" y="14.696" class="f">is</text><text x="16.032" y="14.696" class="f">a</text><text x="18.036" y="14.696" class="f">local</text><text x="24.048" y="14.696" class="f">TTS</text><text x="28.056" y="14.696" class="f">for</text><text x="32.064" y="14.696" class="f">the</text><text x="36.072" y="14.696" class="f">terminal.</text></svg><svg x="960"><use xlink:href="#a"/><use xlink:href="#b" x="36.996" y="13.001"/><use xlink:href="#1"/><use xlink:href="#2" y="2.171"/><use xlink:href="#3" y="4.342"/><use xlink:href="#1" y="6.513"/><use xlink:href="#5" y="10.855"/><text y="14.696" class="f">▶</text><text x="2.004" y="14.696" class="f">[2/5]</text><text x="8.016" y="14.696" class="f">It</text><text x="11.022" y="14.696" class="f">uses</text><text x="16.032" y="14.696" class="f">Kokoro</text><text x="23.046" y="14.696" class="f">for</text><text x="27.054" y="14.696" class="f">the</text><text x="31.062" y="14.696" class="f">voice.</text></svg><svg x="1040"><use xlink:href="#a"/><use xlink:href="#b" x="69.996" y="13.001"/><use xlink:href="#1"/><use xlink:href="#2" y="2.171"/><use xlink:href="#3" y="4.342"/><use xlink:href="#1" y="6.513"/><use xlink:href="#5" y="10.855"/><text y="14.696" class="f">▶</text><text x="2.004" y="14.696" class="f">[3/5]</text><text x="8.016" y="14.696" class="f">Each</text><text x="13.026" y="14.696" class="f">paragraph</text><text x="23.046" y="14.696" class="f">is</text><text x="26.052" y="14.696" class="f">synthesised</text><text x="38.076" y="14.696" class="f">in</text><text x="41.082" y="14.696" class="f">one</text><text x="45.09" y="14.696" class="f">call</text><text x="50.1" y="14.696" class="f">so</text><text x="53.106" y="14.696" class="f">the</text><text x="57.114" y="14.696" class="f">prosody</text><text x="65.13" y="14.696" class="f">flows</text></svg><svg x="1120"><use xlink:href="#a"/><use xlink:href="#b" x="17.996" y="13.001"/><use xlink:href="#1"/><use xlink:href="#2" y="2.171"/><use xlink:href="#3" y="4.342"/><use xlink:href="#1" y="6.513"/><use xlink:href="#5" y="10.855"/><text y="14.696" class="f">▶</text><text x="2.004" y="14.696" class="f">[3/5]</text><text x="8.016" y="14.696" class="f">naturally.</text></svg><svg x="1200"><use xlink:href="#a"/><use xlink:href="#b" x="76.996" y="13.001"/><use xlink:href="#1"/><use xlink:href="#2" y="2.171"/><use xlink:href="#3" y="4.342"/><use xlink:href="#1" y="6.513"/><use xlink:href="#5" y="10.855"/><text y="14.696" class="f">▶</text><text x="2.004" y="14.696" class="f">[4/5]</text><text x="8.016" y="14.696" class="f">The</text><text x="12.024" y="14.696" class="f">subtitle</text><text x="21.042" y="14.696" class="f">stays</text><text x="27.054" y="14.696" class="f">pinned</text><text x="34.068" y="14.696" class="f">to</text><text x="37.074" y="14.696" class="f">the</text><text x="41.082" y="14.696" class="f">bottom</text><text x="48.096" y="14.696" class="f">of</text><text x="51.102" y="14.696" class="f">your</text><text x="56.112" y="14.696" class="f">terminal</text><text x="65.13" y="14.696" class="f">and</text><text x="69.138" y="14.696" class="f">rewrites</text></svg><svg x="1280"><use xlink:href="#a"/><use xlink:href="#b" x="27.996" y="13.001"/><use xlink:href="#1"/><use xlink:href="#2" y="2.171"/><use xlink:href="#3" y="4.342"/><use xlink:href="#1" y="6.513"/><use xlink:href="#5" y="10.855"/><text y="14.696" class="f">▶</text><text x="2.004" y="14.696" class="f">[4/5]</text><text x="8.016" y="14.696" class="f">itself</text><text x="15.03" y="14.696" class="f">per</text><text x="19.038" y="14.696" class="f">sentence.</text></svg><svg x="1360"><use xlink:href="#a"/><use xlink:href="#b" x="33.996" y="13.001"/><use xlink:href="#1"/><use xlink:href="#2" y="2.171"/><use xlink:href="#3" y="4.342"/><use xlink:href="#1" y="6.513"/><use xlink:href="#5" y="10.855"/><text y="14.696" class="f">▶</text><text x="2.004" y="14.696" class="f">[5/5]</text><text x="8.016" y="14.696" class="f">It</text><text x="11.022" y="14.696" class="f">never</text><text x="17.034" y="14.696" class="f">wraps</text><text x="23.046" y="14.696" class="f">or</text><text x="26.052" y="14.696" class="f">scrolls.</text></svg><svg x="1440"><use xlink:href="#a"/><use xlink:href="#b" x="-.004" y="13.001"/><use xlink:href="#1"/><use xlink:href="#2" y="2.171"/><use xlink:href="#3" y="4.342"/><use xlink:href="#1" y="6.513"/><use xlink:href="#5" y="10.855"/></svg><svg x="1520"><use xlink:href="#a"/><use xlink:href="#b" x="-.004"/></svg><svg x="1600"><use xlink:href="#a"/><use xlink:href="#b" x="-.004" y="8.659"/><use xlink:href="#1"/><use xlink:href="#2" y="2.171"/><use xlink:href="#3" y="4.342"/><use xlink:href="#1" y="6.513"/></svg><svg x="1680"><use xlink:href="#a"/><use xlink:href="#b" x="-.004" y="10.83"/><use xlink:href="#1"/><use xlink:href="#2" y="2.171"/><use xlink:href="#3" y="4.342"/><use xlink:href="#1" y="6.513"/></svg><svg x="1760"><use xlink:href="#a"/><use xlink:href="#b" x="-.004" y="15.172"/><use xlink:href="#1"/><use xlink:href="#2" y="2.171"/><use xlink:href="#3" y="4.342"/><use xlink:href="#1" y="6.513"/><use xlink:href="#6" y="10.855"/><use xlink:href="#7" y="13.026"/></svg><svg x="1840"><use xlink:href="#a"/><use xlink:href="#b" x="77.996" y="15.172"/><use xlink:href="#1"/><use xlink:href="#2" y="2.171"/><use xlink:href="#3" y="4.342"/><use xlink:href="#1" y="6.513"/><use xlink:href="#6" y="10.855"/><use xlink:href="#7" y="13.026"/><text y="16.867" class="f">▶</text><text x="2.004" y="16.867" class="f">[1/1]</text><text x="8.016" y="16.867" class="f">This</text><text x="13.026" y="16.867" class="f">is</text><text x="16.032" y="16.867" class="f">a</text><text x="18.036" y="16.867" class="f">long</text><text x="23.046" y="16.867" class="f">sentence</text><text x="32.064" y="16.867" class="f">that</text><text x="37.074" y="16.867" class="f">I</text><text x="39.078" y="16.867" class="f">am</text><text x="42.084" y="16.867" class="f">about</text><text x="48.096" y="16.867" class="f">to</text><text x="51.102" y="16.867" class="f">interrupt</text><text x="61.122" y="16.867" class="f">mid-flow,</text><text x="71.142" y="16.867" class="f">just</text><text x="76.152" y="16.867" class="f">to</text></svg><svg x="1920"><use xlink:href="#a"/><use xlink:href="#b" x="77.996" y="15.172"/><use xlink:href="#1"/><use xlink:href="#2" y="2.171"/><use xlink:href="#3" y="4.342"/><use xlink:href="#1" y="6.513"/><use xlink:href="#6" y="10.855"/><use xlink:href="#7" y="13.026"/><text y="16.867" class="f">▶</text><text x="2.004" y="16.867" class="f">[1/1]</text><text x="8.016" y="16.867" class="f">show</text><text x="13.026" y="16.867" class="f">the</text><text x="17.034" y="16.867" class="f">hush</text><text x="22.044" y="16.867" class="f">flag</text><text x="27.054" y="16.867" class="f">in</text><text x="30.06" y="16.867" class="f">action</text><text x="37.074" y="16.867" class="f">across</text><text x="44.088" y="16.867" class="f">terminals,</text><text x="55.11" y="16.867" class="f">killing</text><text x="63.126" y="16.867" class="f">audio</text><text x="69.138" y="16.867" class="f">instantly</text></svg><svg x="2000"><use xlink:href="#a"/><use xlink:href="#b" x="-.004" y="19.514"/><use xlink:href="#1"/><use xlink:href="#2" y="2.171"/><use xlink:href="#3" y="4.342"/><use xlink:href="#1" y="6.513"/><use xlink:href="#6" y="10.855"/><use xlink:href="#7" y="13.026"/><use xlink:href="#8" y="15.197"/><use xlink:href="#9" y="17.368"/></svg><svg x="2080"><use xlink:href="#a"/><use xlink:href="#b" x="-.004" y="19.514"/><use xlink:href="#1"/><use xlink:href="#2" y="2.171"/><use xlink:href="#3" y="4.342"/><use xlink:href="#1" y="6.513"/><use xlink:href="#6" y="10.855"/><use xlink:href="#7" y="13.026"/><use xlink:href="#8" y="15.197"/><use xlink:href="#9" y="17.368"/></svg><svg x="2160"><use xlink:href="#a"/><use xlink:href="#b" x="-.004" y="21.685"/><use xlink:href="#1"/><use xlink:href="#2" y="2.171"/><use xlink:href="#3" y="4.342"/><use xlink:href="#1" y="6.513"/><use xlink:href="#6" y="10.855"/><use xlink:href="#7" y="13.026"/><use xlink:href="#8" y="15.197"/><use xlink:href="#9" y="17.368"/></svg><svg x="2240"><use xlink:href="#a"/><use xlink:href="#b" x="-.004"/></svg><svg x="2320"><use xlink:href="#a"/><use xlink:href="#b" x="-.004" y="8.659"/><use xlink:href="#1"/><use xlink:href="#2" y="2.171"/><use xlink:href="#3" y="4.342"/><use xlink:href="#1" y="6.513"/></svg><svg x="2400"><use xlink:href="#a"/><use xlink:href="#b" x="-.004" y="10.83"/><use xlink:href="#1"/><use xlink:href="#2" y="2.171"/><use xlink:href="#3" y="4.342"/><use xlink:href="#1" y="6.513"/></svg><svg x="2480"><use xlink:href="#a"/><use xlink:href="#b" x="-.004" y="13.001"/><use xlink:href="#1"/><use xlink:href="#2" y="2.171"/><use xlink:href="#3" y="4.342"/><use xlink:href="#1" y="6.513"/><use xlink:href="#10" y="10.855"/></svg><svg x="2560"><use xlink:href="#a"/><use xlink:href="#b" x="-.004" y="17.343"/><use xlink:href="#1"/><use xlink:href="#2" y="2.171"/><use xlink:href="#3" y="4.342"/><use xlink:href="#1" y="6.513"/><use xlink:href="#10" y="10.855"/><text x="2.004" y="14.696" class="f">MIT</text><text x="7.014" y="14.696" class="f">•</text><text x="10.02" y="14.696" class="f">Mac</text><text x="15.03" y="14.696" class="f">•</text><text x="18.036" y="14.696" class="f">54</text><text x="21.042" y="14.696" class="f">voices</text><text x="29.058" y="14.696" class="f">•</text><text x="32.064" y="14.696" class="f">$0/month</text></svg></svg></g></g></svg></svg>